<svg width="200" height="200" viewBox="0 0 200 200" fill="none" xmlns="http://www.w3.org/2000/svg">
<path d="M22.4253 106.074H34.2337L40.794 73.4373H28.9855L22.4253 106.074ZM31.4456 70.4852H45.3861L47.6822 59.0047H33.7417L31.4456 70.4852ZM38.8259 115.259H50.6343L57.8506 79.9975H66.7069L68.019 73.4373H59.3267L59.6547 71.9612C60.1467 69.1731 61.1307 66.057 65.5589 66.057C68.183 66.057 70.6431 66.221 73.1032 67.369L74.4152 60.4808C71.6271 59.4967 68.675 59.0047 65.8869 59.0047C56.3746 59.0047 49.8143 64.5809 47.3542 73.4373H43.2541L41.942 79.9975H46.0422L38.8259 115.259Z" fill="#EA1D2C"/>
<path d="M76.302 106.731C90.2425 106.731 99.9189 94.1021 99.9189 83.7697C99.9189 76.0614 92.8666 72.7813 85.9784 72.7813C70.7258 72.7813 62.3615 86.3938 62.3615 95.7421C62.3615 103.45 69.5778 106.731 76.302 106.731ZM113.695 106.731C127.636 106.731 137.312 94.1021 137.312 83.7697C137.312 76.0614 130.096 72.7813 123.208 72.7813C107.955 72.7813 99.5909 86.3938 99.5909 95.7421C99.5909 103.45 106.971 106.731 113.695 106.731ZM156.501 106.075H168.145L177.658 59.6608H165.849L163.061 73.4373L158.141 72.9453C146.661 72.9453 136.164 87.7058 136.164 98.2022C136.164 102.466 138.952 106.731 143.709 106.731C150.433 106.731 155.189 103.45 157.157 100.17H157.813L156.501 106.075ZM120.092 130.511C110.926 138.105 99.1537 141.813 87.2904 140.844C71.7098 139.86 60.5574 127.887 58.5894 115.259H59.2454C62.8535 123.131 71.5458 130.511 82.2062 131.659C93.0306 132.971 105.987 128.051 113.039 121.327L105.167 115.259H128.948L123.7 140.516L120.256 130.675L120.092 130.511Z" fill="#EA1D2C"/>
</svg>
