<svg width="100" height="100" viewBox="0 0 100 100" fill="none" xmlns="http://www.w3.org/2000/svg">
<path fill-rule="evenodd" clip-rule="evenodd" d="M83.1621 16.7004C74.3914 7.91931 62.727 3.08132 50.3004 3.07617C24.6942 3.07617 3.85456 23.9153 3.84426 49.5283C3.84083 57.716 5.97973 65.7085 10.0452 72.7535L3.45459 96.8262L28.0817 90.366C34.8675 94.0676 42.507 96.0182 50.2815 96.0205H50.301C75.9043 96.0205 96.7462 75.1797 96.756 49.5655C96.7611 37.1521 91.9334 25.4808 83.1621 16.7004ZM50.3004 88.175H50.2844C43.3561 88.1721 36.5612 86.3102 30.632 82.7929L29.2227 81.9557L14.6086 85.7895L18.5093 71.541L17.5909 70.0802C13.7257 63.9324 11.6846 56.8268 11.688 49.5312C11.6961 28.2423 29.0178 10.9222 50.3158 10.9222C60.6293 10.9257 70.3241 14.9471 77.614 22.2456C84.9039 29.5441 88.9162 39.2452 88.9128 49.5626C88.9036 70.8532 71.583 88.175 50.3004 88.175ZM71.48 59.2564C70.3195 58.675 64.6124 55.8678 63.5481 55.4798C62.4849 55.0924 61.7102 54.8996 60.9371 56.0612C60.1629 57.2227 57.9388 59.8377 57.2613 60.6119C56.5838 61.3867 55.9074 61.484 54.7464 60.9026C53.5854 60.3218 49.8455 59.0956 45.4115 55.1411C41.9611 52.0632 39.6316 48.262 38.9542 47.1004C38.2778 45.9377 38.9484 45.3701 39.4634 44.7315C40.72 43.1711 41.9783 41.5352 42.3651 40.761C42.7525 39.9862 42.5585 39.3082 42.2678 38.7274C41.9783 38.1466 39.6568 32.4331 38.6898 30.1083C37.7468 27.8458 36.7907 28.1513 36.0777 28.1158C35.4013 28.0821 34.6271 28.0752 33.853 28.0752C33.0793 28.0752 31.8216 28.3653 30.7573 29.528C29.6936 30.6902 26.6952 33.498 26.6952 39.2115C26.6952 44.9249 30.8546 50.4444 31.4348 51.2192C32.015 51.9939 39.6202 63.7184 51.264 68.7458C54.0335 69.9428 56.1953 70.6564 57.8815 71.1914C60.6625 72.0749 63.1922 71.9501 65.1926 71.6515C67.423 71.3179 72.0596 68.8431 73.0278 66.132C73.9948 63.4203 73.9948 61.0966 73.7041 60.6119C73.4146 60.1278 72.6404 59.8377 71.48 59.2564Z" fill="#34AF23"/>
</svg>
