<svg width="12" height="20" viewBox="0 0 12 20" fill="none" xmlns="http://www.w3.org/2000/svg">
<path d="M10.9933 7.98752H9.1505H8.48328V7.33229V5.33541V4.68019H9.1505H10.5485C10.898 4.68019 11.1839 4.39938 11.1839 4.05616V0.624025C11.1839 0.280811 10.898 0 10.5485 0H8.13378C5.52843 0 3.71739 1.84087 3.71739 4.49298V7.33229V7.98752H3.05017H0.857859C0.381271 7.98752 0 8.36193 0 8.86115V11.17C0 11.6381 0.381271 12.0125 0.857859 12.0125H3.05017H3.71739V12.6677V19.1576C3.71739 19.6256 4.09866 20 4.57525 20H7.68896C7.8796 20 8.07023 19.9064 8.19732 19.7816C8.35619 19.6256 8.41973 19.4072 8.41973 19.22V12.6365V11.9813H9.11873H10.5803C10.9933 11.9813 11.3428 11.7005 11.4064 11.3261V11.2949V11.2637L11.8512 9.04836C11.9147 8.79875 11.8512 8.54914 11.6605 8.29953C11.5334 8.14353 11.2793 8.01872 10.9933 7.98752Z" fill="#FFC730"/>
</svg>
