<svg width="21" height="20" viewBox="0 0 21 20" fill="none" xmlns="http://www.w3.org/2000/svg">
<path d="M0.875 10.0312C0.875 10.1875 0.875 10.3438 0.906348 10.5C0.906348 10.5313 0.906348 10.5938 0.906348 10.6563C0.906348 10.75 0.937696 10.875 0.937696 11C0.937696 11.0313 0.937696 11.0938 0.969044 11.1563C1.00039 11.2813 1.00039 11.4063 1.00039 11.5313C1.00039 11.5625 1.00039 11.5938 1.03174 11.625C1.06309 11.7813 1.06309 11.9063 1.12578 12.0625C1.12578 12.0938 1.15713 12.1562 1.15713 12.1875C1.18848 12.2813 1.18848 12.4062 1.21983 12.5C1.25118 12.5313 1.25118 12.5937 1.25118 12.6562C1.28252 12.75 1.31387 12.875 1.34522 12.9688C1.37657 13 1.37657 13.0625 1.37657 13.0938C1.40792 13.25 1.47061 13.375 1.53331 13.5C1.56466 13.5313 1.56466 13.5938 1.56466 13.625C1.596 13.7188 1.6587 13.8125 1.69005 13.9062C1.72139 13.9375 1.72139 14 1.75274 14.0625C1.78409 14.1563 1.84679 14.2188 1.87813 14.3438C1.90948 14.375 1.90948 14.4375 1.94083 14.5C2.00353 14.625 2.06622 14.75 2.12892 14.8438C2.16027 14.875 2.16027 14.9062 2.19161 14.9375C2.25431 15.0312 2.28566 15.125 2.34835 15.2188C2.31701 15.1875 2.3797 15.25 2.3797 15.3125C2.41105 15.4063 2.47375 15.4688 2.53644 15.5313C2.56779 15.5625 2.59914 15.625 2.63049 15.6875C2.69318 15.7813 2.75588 15.8437 2.81857 15.9375C2.84992 15.9688 2.84992 16 2.88127 16.0312C2.97531 16.125 3.03801 16.25 3.13205 16.3437C3.1634 16.375 3.19475 16.4375 3.2261 16.4688C3.28879 16.5313 3.35149 16.5938 3.38284 16.6875C3.41419 16.7188 3.47688 16.7812 3.50823 16.8125C3.57093 16.875 3.63362 16.9687 3.69632 17.0312C3.72766 17.0625 3.75901 17.125 3.79036 17.125C3.8844 17.2187 3.97845 17.3125 4.07249 17.4063C4.10384 17.4375 4.16654 17.4687 4.16654 17.5C4.22923 17.5625 4.32328 17.625 4.38597 17.6875C4.41732 17.7188 4.48002 17.7813 4.51136 17.7813C4.57406 17.8438 4.6681 17.9063 4.7308 17.9375C4.76215 17.9688 4.82484 18 4.85619 18.0313C4.95024 18.125 5.07563 18.1875 5.20102 18.2812C5.23237 18.3125 5.26371 18.3125 5.29506 18.3438C5.38911 18.4063 5.48315 18.4688 5.57719 18.5C5.60854 18.5313 5.67124 18.5625 5.73393 18.5938C5.82798 18.625 5.89067 18.6875 5.98472 18.75C6.01607 18.7813 6.07876 18.7812 6.11011 18.8437C6.2355 18.9062 6.32955 18.9688 6.45494 19.0313C6.48629 19.0313 6.48629 19.0625 6.48629 19.0625C6.61168 19.125 6.76842 19.1875 6.89381 19.25C6.92516 19.2813 6.98785 19.2813 7.0192 19.2813C7.0819 19.3125 7.11324 19.3125 7.17594 19.3438C7.0819 18.5625 7.0192 17.3438 7.20729 16.4688C7.39538 15.6875 8.36716 11.5 8.36716 11.5C8.36716 11.5 8.08503 10.9062 8.08503 10.0312C8.08503 8.625 8.90008 7.59375 9.90321 7.59375C10.7496 7.59375 11.1885 8.25 11.1885 9C11.1885 9.84375 10.6556 11.125 10.3421 12.3125C10.1226 13.3125 10.8437 14.125 11.8154 14.125C13.5709 14.125 14.9502 12.25 14.9502 9.5625C14.9502 7.1875 13.2261 5.5 10.781 5.5C7.92829 5.5 6.26685 7.625 6.26685 9.8125C6.26685 10.6563 6.61168 11.5625 7.0192 12.0938C7.11324 12.1875 7.11324 12.2813 7.0819 12.375C6.98785 12.6875 6.83111 13.375 6.79976 13.5C6.76842 13.6875 6.64302 13.7188 6.45494 13.625C5.20102 13.0313 4.44867 11.2188 4.44867 9.75C4.44867 6.625 6.73707 3.71875 11.0631 3.71875C14.5427 3.71875 17.2386 6.1875 17.2386 9.46875C17.2386 12.9063 15.0756 15.6875 12.0662 15.6875C11.0317 15.6875 10.1226 15.1562 9.77782 14.5312C9.77782 14.5312 9.27625 16.4375 9.15086 16.9063C8.93143 17.7813 8.30447 18.8437 7.89694 19.5312C8.02234 19.5625 8.17908 19.625 8.30447 19.6563C8.33581 19.6875 8.39851 19.6875 8.46121 19.6875C8.55525 19.7188 8.68064 19.7188 8.74334 19.75C8.77469 19.7813 8.83738 19.7812 8.90008 19.7812C9.02547 19.8125 9.18221 19.8125 9.3076 19.8438C9.33895 19.8438 9.33895 19.8438 9.33895 19.8438C9.49569 19.875 9.62108 19.875 9.77782 19.9063C9.80917 19.9063 9.87187 19.9062 9.93456 19.9375C10.0286 19.9687 10.154 19.9688 10.2794 19.9688C10.3107 19.9688 10.3734 19.9688 10.4048 19.9688C10.5615 19.9688 10.7183 20 10.875 20C16.3922 20 20.875 15.5312 20.875 10.0312C20.875 5.78125 18.2104 2.15625 14.48 0.71875C14.386 0.625 14.2606 0.5625 14.1352 0.5C13.8531 0.40625 13.5396 0.3125 13.2261 0.25C12.944 0.1875 12.6932 0.125 12.4424 0.09375C12.0976 0.0625 11.7841 0 11.4393 0C11.2825 0 11.0944 0 10.9063 0C10.5615 0 10.2167 0.03125 9.87187 0.03125C9.71513 0.0625 9.52704 0.0625 9.3703 0.09375C4.54271 0.90625 0.875 5.0625 0.875 10.0312Z" fill="#FFC730"/>
</svg>
