<svg width="20" height="20" viewBox="0 0 20 20" fill="none" xmlns="http://www.w3.org/2000/svg">
<path d="M6.29108 20C13.8654 20 17.9969 12.3225 17.9969 5.64299C17.9969 5.45106 17.9969 5.22073 17.9656 4.9904C18.7793 4.26104 19.4679 3.37812 20 2.38004C19.2488 2.8023 18.4664 3.07102 17.6213 3.18618C18.4664 2.57198 19.1236 1.5739 19.4366 0.383877C18.6228 0.959693 17.7778 1.38196 16.8075 1.61228C16.0563 0.614203 14.9922 0 13.8028 0C11.518 0 9.67136 2.26488 9.67136 5.06718C9.67136 5.45106 9.70266 5.83493 9.76526 6.21881C6.44757 5.98848 3.41158 3.99232 1.37715 0.921305C1.03286 1.68906 0.813771 2.53359 0.813771 3.45489C0.813771 5.22073 1.53365 6.75624 2.66041 7.63916C1.97183 7.60077 1.34585 7.37044 0.813771 7.02495C0.813771 7.06334 0.813771 7.06334 0.813771 7.06334C0.813771 9.48177 2.22222 11.5547 4.10016 12.0154C3.75587 12.1305 3.38028 12.2073 3.03599 12.2073C2.7543 12.2073 2.50391 12.1689 2.25352 12.0921C2.7856 14.0883 4.28795 15.547 6.10329 15.5854C4.69484 16.929 2.9108 17.7351 1.00156 17.7351C0.625978 17.7735 0.312989 17.7351 0 17.6967C1.78404 19.1555 3.97496 20 6.29108 20Z" fill="#FFC730"/>
</svg>
