<svg width="154" height="60" viewBox="0 0 154 60" fill="none" xmlns="http://www.w3.org/2000/svg">
<circle cx="30" cy="30" r="25" stroke="#2EBE3D" stroke-width="10"/>
<path d="M8.78557 54.8899C8.78557 54.8899 4.92156 50.7894 8.70265 42.7538C10.2322 34.0274 23.1141 28.6917 26.2103 21.7405C27.0412 19.4287 28.6452 23.0896 29.9866 23.4107C32.2781 22.9905 32.187 24.2752 33.4236 25.3267C34.8204 26.4291 36.101 27.1788 38.4102 27.3039C40.7194 27.429 35.717 31.3434 35.717 31.3434C35.717 31.3434 22.6462 40.206 19.7185 42.2766C18.9908 42.7913 8.55121 51.5857 9.45299 54.7352C9.58708 55.2035 8.78557 54.8899 8.78557 54.8899Z" fill="#FF6502"/>
<path d="M27.8268 19.6186C28.5714 23.2031 33.8987 20.8691 35.0748 24.4352C37.1495 27.091 41.5043 25.7693 39.6894 22.1931C39.2437 17.9133 45.0069 17.1144 48.0252 18.2759C51.9357 19.4601 54.0451 25.6432 50.3153 28.1971C46.361 30.8561 48.3347 21.5559 44.1892 24.9031C41.1897 27.5768 44.9546 31.9187 47.6023 33.2649C51.7175 34.1061 55.7437 30.1578 56.1266 26.1931C56.2873 20.9381 52.759 15.659 47.8636 13.7357C43.5538 12.2677 39.3025 15.5685 35.9565 16.2198C32.7958 14.3353 27.6559 14.9744 27.8268 19.6186Z" fill="#2EBE3D"/>
<path d="M8.75208 48.1696C9.55089 44.4111 10.3811 40.4313 12.9008 37.4005C14.9867 35.0231 17.4956 33.0647 19.617 30.7204C21.7104 28.6312 23.815 26.5534 25.9194 24.4754C23.9105 27.3876 21.8698 30.2992 19.4369 32.8788C18.2163 35.3096 15.2449 36.2243 14.1081 38.7238C11.7585 42.5032 10.1834 46.684 8.48077 50.7764C8.54014 49.9044 8.66688 49.039 8.75208 48.1696Z" fill="white"/>
<path d="M70.6 43H80.64V39H74.92V13.6H70.6V43ZM85.0769 43.32C85.7169 43.32 86.3169 43.1333 86.8769 42.76C87.4369 42.3733 87.8902 41.8667 88.2369 41.24H88.5169C88.5169 42.1333 88.6369 42.72 88.8769 43H92.8369C92.7302 42.1867 92.6569 41.5067 92.6169 40.96C92.5769 40.4133 92.5569 39.8267 92.5569 39.2V25.76C92.5569 24.8267 92.3369 23.9867 91.8969 23.24C91.4569 22.4933 90.8635 21.9 90.1169 21.46C89.3835 21.02 88.5569 20.8 87.6369 20.8C86.6369 20.8 85.7235 21.06 84.8969 21.58C84.0702 22.1 83.4102 22.8067 82.9169 23.7C82.4369 24.58 82.1969 25.56 82.1969 26.64V27.56H86.2369C86.2369 26.32 86.3102 25.4733 86.4569 25.02C86.6035 24.5533 86.9035 24.32 87.3569 24.32C87.9435 24.32 88.2835 24.56 88.3769 25.04C88.4702 25.52 88.5169 25.9467 88.5169 26.32V28.24C88.5169 28.5067 88.4835 28.7133 88.4169 28.86C88.3635 28.9933 88.1902 29.1467 87.8969 29.32C87.6169 29.4933 87.1235 29.7667 86.4169 30.14C84.7769 30.9933 83.5902 32.0533 82.8569 33.32C82.1235 34.5733 81.7569 36.0733 81.7569 37.82C81.7569 39.4467 82.0435 40.7733 82.6169 41.8C83.2035 42.8133 84.0235 43.32 85.0769 43.32ZM86.8769 39.36C86.1035 39.36 85.7169 38.7133 85.7169 37.42C85.7169 36.2733 85.9569 35.2667 86.4369 34.4C86.9302 33.5333 87.6235 32.8933 88.5169 32.48V38.04C88.5169 38.3733 88.3502 38.68 88.0169 38.96C87.6835 39.2267 87.3035 39.36 86.8769 39.36ZM100.727 43.32C102.687 43.32 104.173 42.7067 105.187 41.48C106.213 40.2533 106.727 38.4667 106.727 36.12C106.727 34.8267 106.42 33.4733 105.807 32.06C105.193 30.6467 104.153 28.9067 102.687 26.84C101.393 25.0133 100.5 23.6067 100.007 22.62C99.5266 21.6333 99.2866 20.7467 99.2866 19.96C99.2866 18.16 99.7799 17.2533 100.767 17.24C101.913 17.2133 102.487 18.6267 102.487 21.48L106.727 21.08C106.727 18.5467 106.2 16.6067 105.147 15.26C104.107 13.9 102.62 13.24 100.687 13.28C99.0199 13.3067 97.6599 13.96 96.6066 15.24C95.5666 16.5067 95.0466 18.1467 95.0466 20.16C95.0466 22.3867 96.2066 25.22 98.5266 28.66C99.4332 29.9933 100.147 31.0733 100.667 31.9C101.2 32.7267 101.593 33.4 101.847 33.92C102.113 34.4267 102.287 34.8733 102.367 35.26C102.447 35.6467 102.487 36.0667 102.487 36.52C102.487 38.4133 101.9 39.36 100.727 39.36C100.02 39.36 99.4999 38.9667 99.1666 38.18C98.8466 37.38 98.6866 36.1067 98.6866 34.36L94.4466 34.76C94.2466 40.4667 96.3399 43.32 100.727 43.32ZM111.718 43.32C112.358 43.32 112.958 43.1333 113.518 42.76C114.078 42.3733 114.531 41.8667 114.878 41.24H115.158C115.158 42.1333 115.278 42.72 115.518 43H119.478C119.371 42.1867 119.298 41.5067 119.258 40.96C119.218 40.4133 119.197 39.8267 119.197 39.2V25.76C119.197 24.8267 118.978 23.9867 118.538 23.24C118.098 22.4933 117.504 21.9 116.758 21.46C116.024 21.02 115.198 20.8 114.278 20.8C113.278 20.8 112.364 21.06 111.538 21.58C110.711 22.1 110.051 22.8067 109.558 23.7C109.078 24.58 108.838 25.56 108.838 26.64V27.56H112.878C112.878 26.32 112.951 25.4733 113.098 25.02C113.244 24.5533 113.544 24.32 113.998 24.32C114.584 24.32 114.924 24.56 115.018 25.04C115.111 25.52 115.158 25.9467 115.158 26.32V28.24C115.158 28.5067 115.124 28.7133 115.058 28.86C115.004 28.9933 114.831 29.1467 114.538 29.32C114.258 29.4933 113.764 29.7667 113.058 30.14C111.418 30.9933 110.231 32.0533 109.498 33.32C108.764 34.5733 108.398 36.0733 108.398 37.82C108.398 39.4467 108.684 40.7733 109.258 41.8C109.844 42.8133 110.664 43.32 111.718 43.32ZM113.518 39.36C112.744 39.36 112.358 38.7133 112.358 37.42C112.358 36.2733 112.598 35.2667 113.078 34.4C113.571 33.5333 114.264 32.8933 115.158 32.48V38.04C115.158 38.3733 114.991 38.68 114.658 38.96C114.324 39.2267 113.944 39.36 113.518 39.36ZM121.85 43H125.89V13.6H121.85V43ZM134.161 43.32C135.735 43.32 136.988 42.7733 137.921 41.68C138.855 40.5867 139.321 39.1333 139.321 37.32C139.321 36.2133 139.048 35.1733 138.501 34.2C137.955 33.2133 136.988 32.0267 135.601 30.64C134.628 29.7333 133.941 28.9733 133.541 28.36C133.155 27.7333 132.961 27.1133 132.961 26.5C132.961 24.94 133.375 24.16 134.201 24.16C134.668 24.16 135.001 24.36 135.201 24.76C135.415 25.1467 135.521 25.8 135.521 26.72H139.281C139.281 24.6533 138.868 23.1467 138.041 22.2C137.215 21.24 135.908 20.7733 134.121 20.8C132.575 20.8267 131.368 21.36 130.501 22.4C129.635 23.44 129.201 24.88 129.201 26.72C129.201 27.5067 129.315 28.2333 129.541 28.9C129.768 29.5533 130.161 30.2333 130.721 30.94C131.281 31.6467 132.055 32.48 133.041 33.44C134.028 34.4267 134.695 35.2067 135.041 35.78C135.388 36.3533 135.561 36.96 135.561 37.6C135.561 39.1733 135.095 39.96 134.161 39.96C133.575 39.96 133.115 39.6733 132.781 39.1C132.448 38.5133 132.281 37.6933 132.281 36.64H128.521C128.521 38.76 129.015 40.4067 130.001 41.58C130.988 42.74 132.375 43.32 134.161 43.32ZM145.116 43.32C145.756 43.32 146.356 43.1333 146.916 42.76C147.476 42.3733 147.929 41.8667 148.276 41.24H148.556C148.556 42.1333 148.676 42.72 148.916 43H152.876C152.769 42.1867 152.696 41.5067 152.656 40.96C152.616 40.4133 152.596 39.8267 152.596 39.2V25.76C152.596 24.8267 152.376 23.9867 151.936 23.24C151.496 22.4933 150.903 21.9 150.156 21.46C149.423 21.02 148.596 20.8 147.676 20.8C146.676 20.8 145.763 21.06 144.936 21.58C144.109 22.1 143.449 22.8067 142.956 23.7C142.476 24.58 142.236 25.56 142.236 26.64V27.56H146.276C146.276 26.32 146.349 25.4733 146.496 25.02C146.643 24.5533 146.943 24.32 147.396 24.32C147.983 24.32 148.323 24.56 148.416 25.04C148.509 25.52 148.556 25.9467 148.556 26.32V28.24C148.556 28.5067 148.523 28.7133 148.456 28.86C148.403 28.9933 148.229 29.1467 147.936 29.32C147.656 29.4933 147.163 29.7667 146.456 30.14C144.816 30.9933 143.629 32.0533 142.896 33.32C142.163 34.5733 141.796 36.0733 141.796 37.82C141.796 39.4467 142.083 40.7733 142.656 41.8C143.243 42.8133 144.063 43.32 145.116 43.32ZM146.916 39.36C146.143 39.36 145.756 38.7133 145.756 37.42C145.756 36.2733 145.996 35.2667 146.476 34.4C146.969 33.5333 147.663 32.8933 148.556 32.48V38.04C148.556 38.3733 148.389 38.68 148.056 38.96C147.723 39.2267 147.343 39.36 146.916 39.36Z" fill="#FFC730"/>
</svg>
